<svg width="127" height="129" viewBox="0 0 127 129" fill="none" xmlns="http://www.w3.org/2000/svg">
<path fill-rule="evenodd" clip-rule="evenodd" d="M74.5 5.5V32L39.5 63L115.103 128H116.5C122.023 128 126.5 123.523 126.5 118V9.99998C126.5 4.47714 122.023 -1.52588e-05 116.5 -1.52588e-05H74.5V5.5Z" fill="url(#paint0_radial_1_58)"/>
<path fill-rule="evenodd" clip-rule="evenodd" d="M74.5 5.5V32L39.5 63L113.746 126.834C111.639 127.589 109.367 128 107 128H20C8.9543 128 0 119.046 0 108V20C0 8.95432 8.9543 1.52588e-05 20 1.52588e-05H74.5V5.5Z" fill="url(#paint1_linear_1_58)"/>
<path fill-rule="evenodd" clip-rule="evenodd" d="M39.5 62.9999L115.185 128.07H99L39.5 75.9999V62.9999Z" fill="#43AAED"/>
<path d="M71 35V0H74.5V6.5V15V32L71 35Z" fill="#43AAED"/>
<defs>
<radialGradient id="paint0_radial_1_58" cx="0" cy="0" r="1" gradientUnits="userSpaceOnUse" gradientTransform="translate(177 54) rotate(139.881) scale(257.614 244.23)">
<stop stop-color="#2F2F2F"/>
<stop offset="0.125732" stop-color="#2D2D2D"/>
<stop offset="1"/>
</radialGradient>
<linearGradient id="paint1_linear_1_58" x1="95.1508" y1="1.50285e-05" x2="10.6255" y2="135.072" gradientUnits="userSpaceOnUse">
<stop stop-color="#093E69"/>
<stop offset="0.9999" stop-color="#4BB9FF"/>
<stop offset="1" stop-color="#549ECD"/>
</linearGradient>
</defs>
</svg>
